<?xml version="1.0" encoding="utf-8"?>
<svg version="1.1" xmlns:xlink="http://www.w3.org/1999/xlink" width="29px" height="30px" xmlns="http://www.w3.org/2000/svg">
  <g transform="matrix(1 0 0 1 -15 -15 )">
    <path d="M 1.01508252703472 20.5412946428571  C 0.283342819199393 18.6551339285714  -0.0495162208309619 16.6852678571429  0.016505406943654 14.6316964285714  C 0.104534243976475 12.2098214285714  0.742743312464428 9.94419642857143  1.93113261240751 7.83482142857143  C 3.1195219123506 5.72544642857143  4.79757161828875 3.95089285714286  6.96528173022197 2.51116071428571  L 7.04780876494024 2.51116071428571  C 7.04780876494024 2.52232142857142  7.04230696262569 2.5390625  7.03130335799658 2.56138392857143  C 6.94327452096376 2.65066964285714  6.78922405615633 2.83761160714286  6.56915196357427 3.12220982142857  C 6.34907987099222 3.40680803571429  6.06298615063555 3.83370535714286  5.71087080250427 4.40290178571429  C 5.35875545437299 4.97209821428571  5.02864731549991 5.58872767857143  4.72054638588503 6.25279017857143  C 4.41244545627016 6.91685267857142  4.16761525327262 7.67299107142857  3.98605577689243 8.52120535714286  C 3.80449630051224 9.36941964285714  3.72747106810852 10.2092633928571  3.75498007968127 11.0407366071429  C 3.78248909125403 11.8722098214286  3.99705938152153 12.7511160714286  4.39869095048378 13.6774553571429  C 4.80032251944603 14.6037946428571  5.39726807057484 15.4631696428571  6.18952760387023 16.2555803571429  C 6.73970783532537 16.8136160714286  7.3008916714096 17.2014508928571  7.87307911212294 17.4190848214286  C 8.44526655283627 17.63671875  8.94317966230317 17.7008928571429  9.36681844052362 17.6116071428571  C 9.79045721874407 17.5223214285714  10.1728324796054 17.3911830357143  10.5139442231076 17.2181919642857  C 10.8550559666098 17.0452008928571  11.1136406753937 16.8638392857143  11.2896983494593 16.6741071428571  L 11.5537848605578 16.40625  C 11.9829254410928 15.8370535714286  12.274520963764 15.1869419642857  12.4285714285714 14.4559151785714  C 12.5826218933789 13.7248883928571  12.6183836084235 13.0412946428571  12.5358565737052 12.4051339285714  C 12.4533295389869 11.7689732142857  12.3377916903813 11.171875  12.1892430278884 10.6138392857143  C 12.0406943653956 10.0558035714286  11.89489660406 9.609375  11.7518497438816 9.27455357142857  L 11.5207740466705 8.7890625  C 11.4107380003794 8.51004464285714  11.2429330297856 8.23381696428571  11.017359134889 7.96037946428571  C 10.7917852399924 7.68694196428571  10.5552077404667 7.45814732142857  10.3076266363119 7.27399553571429  C 10.0600455321571 7.08984375  9.8207171314741 6.92522321428571  9.58964143426295 6.78013392857143  C 9.35856573705179 6.63504464285714  9.1660026560425 6.52901785714286  9.01195219123506 6.46205357142857  L 8.79738190096756 6.36160714285714  L 10.5139442231076 4.43638392857143  C 10.9430848036426 4.62611607142857  11.3722253841776 4.91629464285714  11.8013659647126 5.30691964285714  C 12.2305065452476 5.69754464285714  12.5551128818061 6.03794642857142  12.7751849743882 6.328125  L 13.0887877063176 6.78013392857143  C 13.0997913109467 6.24441964285714  12.9980079681275 5.66685267857143  12.78343767786 5.04743303571429  C 12.5688673875925 4.42801339285714  12.3460443938532 3.93973214285714  12.114968696642 3.58258928571429  L 11.7848605577689 3.06361607142857  L 14.4422310756972 0  L 17.0830961866818 3.03013392857143  C 16.7199772339215 3.54352678571428  16.4311326124075 4.11551339285714  16.21656232214 4.74609375  C 16.0019920318725 5.37667410714285  15.8782014797951 5.88169642857143  15.8451906659078 6.26116071428571  L 15.7791690381332 6.81361607142857  C 16.0212483399734 6.40066964285714  16.3596091823183 5.99609375  16.7942515651679 5.59988839285714  C 17.2288939480175 5.20368303571428  17.6002656042497 4.91071428571428  17.9083665338645 4.72098214285714  L 18.3705179282869 4.43638392857143  L 20.0705748434832 6.36160714285714  C 19.5864162398027 6.51785714285714  19.1187630430658 6.796875  18.6676152532726 7.19866071428571  C 18.2164674634794 7.60044642857143  17.8863593246063 7.96316964285714  17.6772908366534 8.28683035714286  L 17.363688104724 8.77232142857143  C 17.0225763612218 9.39732142857143  16.7584898501233 10.1422991071429  16.5714285714286 11.0072544642857  C 16.3843672927338 11.8722098214286  16.345854676532 12.8208705357143  16.455890722823 13.8532366071429  C 16.565926769114 14.8856026785714  16.8795295010434 15.7589285714286  17.3966989186113 16.4732142857143  C 17.7598178713717 16.9754464285714  18.1862075507494 17.3130580357143  18.6758679567445 17.4860491071429  C 19.1655283627395 17.6590401785714  19.6331815594764 17.6897321428571  20.078827546955 17.578125  C 20.5244735344337 17.4665178571429  20.9426105103396 17.3186383928571  21.3332384746727 17.1344866071429  C 21.7238664390059 16.9503348214286  22.0402200720926 16.7633928571429  22.2822993739328 16.5736607142857  L 22.6289129197496 16.3058035714286  C 23.2891291974957 15.7142857142857  23.8200531208499 15.0725446428571  24.2216846898122 14.3805803571429  C 24.6233162587744 13.6886160714286  24.8901536710302 13.0106026785714  25.0221969265794 12.3465401785714  C 25.1542401821286 11.6824776785714  25.2092582052741 11.0044642857143  25.1872509960159 10.3125  C 25.1652437867577 9.62053571428571  25.0662113450958 8.96205357142857  24.8901536710302 8.33705357142857  C 24.7140959969645 7.71205357142857  24.5105293113261 7.11216517857143  24.279453614115 6.53738839285714  C 24.0483779169038 5.96261160714285  23.7980459115917 5.44363839285714  23.5284575981787 4.98046875  C 23.2588692847657 4.51729910714286  23.0112881806109 4.11551339285714  22.7857142857143 3.77511160714286  C 22.5601403908177 3.43470982142857  22.3703282109657 3.16964285714286  22.2162777461582 2.97991071428571  L 22.0017074558907 2.6953125  C 21.8476569910833 2.55022321428571  21.8091443748814 2.47767857142857  21.8861696072851 2.47767857142857  L 22.0512236767217 2.52790178571429  C 22.4913678618858 2.8515625  22.8352305065452 3.10825892857142  23.0828116107001 3.29799107142857  C 23.3303927148549 3.48772321428571  23.671504458357 3.76674107142857  24.1061468412066 4.13504464285714  C 24.5407892240562 4.50334821428571  24.8929045721874 4.82700892857143  25.1624928856005 5.10602678571429  C 25.4320811990135 5.38504464285714  25.7539366344147 5.74776785714286  26.1280591918042 6.19419642857143  C 26.5021817491937 6.640625  26.8075317776513 7.0703125  27.044109277177 7.48325892857143  C 27.2806867767027 7.89620535714285  27.5310187820148 8.38727678571429  27.7951052931133 8.95647321428571  C 28.0591918042117 9.52566964285714  28.2682602921647 10.1004464285714  28.4223107569721 10.6808035714286  C 28.5763612217796 11.2611607142857  28.7056535761715 11.9140625  28.810187820148 12.6395089285714  C 28.9147220641245 13.3649553571429  28.9724909884272 14.1238839285714  28.9834945930563 14.9162946428571  C 29.0165054069437 17.8069196428571  28.4223107569721 20.4017857142857  27.2009106431417 22.7008928571429  C 25.9795105293113 25  24.2629482071713 26.7912946428571  22.0512236767217 28.0747767857143  C 19.8394991462721 29.3582589285714  17.3306772908367 30  14.5247581104155 30  C 12.4890912540315 30  10.557958641624 29.5870535714286  8.73136027319294 28.7611607142857  C 6.90476190476191 27.9352678571429  5.34500094858661 26.8303571428571  4.05207740466705 25.4464285714286  C 2.75915386074749 24.0625  1.74682223487004 22.4274553571429  1.01508252703472 20.5412946428571  Z " fill-rule="nonzero" fill="#ffffff" stroke="none" transform="matrix(1 0 0 1 15 15 )" />
  </g>
</svg>